<?xml version="1.0" encoding="utf-8"?>
<!-- Generator: Adobe Illustrator 21.1.0, SVG Export Plug-In . SVG Version: 6.00 Build 0)  -->
<svg version="1.1" id="Calque_1" xmlns="http://www.w3.org/2000/svg" xmlns:xlink="http://www.w3.org/1999/xlink" x="0px" y="0px"
	 viewBox="0 0 432 432" style="enable-background:new 0 0 432 432;" xml:space="preserve">
<style type="text/css">
	.st0{fill:#1A1A1A;}
	.st1{fill:#D6A667;}
	.st2{fill:#FFB5B8;}
	.st3{fill:#333333;}
	.st4{fill:#E6E6E6;}
	.st5{fill:#FF9494;}
	.st6{fill:#BF86B0;}
	.st7{fill:#A2709C;}
	.st8{fill:#79778D;}
	.st9{fill:#F2BD75;}
	.st10{fill:#9A9DBE;}
	.st11{fill:#713F3E;}
	.st12{fill:#A5A184;}
	.st13{fill:#E3B3B4;}
	.st14{fill:#A87A8F;}
	.st15{fill:#9FAF88;}
	.st16{fill:#D6A1AD;}
	.st17{fill:#060845;}
	.st18{fill:#73A9A5;}
	.st19{fill:#CC7070;}
	.st20{fill:#7E8D66;}
	.st21{fill:#BA9463;}
	.st22{fill:#A34E4C;}
	.st23{fill:#A54748;}
</style>
<g>
	<path class="st0" d="M122.9,179.3c-0.4-2.7-0.8-5.3-1-8c-0.7-6.6-0.9-13.2-0.4-19.8c0.6-7.3,2.1-14.3,5-21.1
		c1.2-2.8,2.6-5.6,4.4-8.1c1.9-2.7,4.1-5.1,6.7-7c2.8-2,5.9-3.4,9.5-3.6c8-0.4,14.2,4.2,16.2,12c1,3.7,0.6,7.3-0.5,10.9
		c-1,3.3-2.7,6.2-4.7,9c-2.8,3.7-6.1,6.9-9.9,9.7c-0.8,0.6-1.7,1.3-2.5,1.9c0.2,0.3,0.4,0.3,0.7,0.3c4.2,0.6,7.9,2.4,11.2,5
		c0.8,0.6,0.6,0.8,1.5,0.1c4-2.9,7.9-6,11.3-9.6c2.6-2.8,4.9-5.9,6.8-9.3c0.1-0.2,0.2-0.4,0.3-0.5c0.2-0.4,0.2-0.6-0.2-0.8
		c-0.3-0.1-0.5-0.2-0.8-0.3c-7.1-3.1-9.2-9.6-8.1-15.4c0.3-1.7,0.8-3.3,1.7-4.8c2.8-4.7,8.8-5.4,12.6-1.4c1.9,2,2.9,4.5,3.3,7.3
		c0.5,3.8-0.2,7.4-1.4,10.9c-0.1,0.4-0.3,0.8-0.4,1.2c-0.2,0.4,0,0.6,0.4,0.7c1.4,0,2.7,0.1,4.1,0.1c1.4,0,2.9,0,4.3,0.3
		c0.4,0.1,0.8,0.2,1.2,0.3c2.6,0.8,3.9,2.5,3.9,5.2c0,2.1-0.5,4.1-1,6.2c-1.3,5.9-2.3,11.8-2.7,17.7c-0.5,5.6-0.5,11.2,0.4,16.8
		c0.4,2.8,1.2,5.6,2.5,8.1c0.4,0.7,0.8,1.4,1.4,2c0.4-0.6,0.6-1.2,0.8-1.8c0.9-2.8,1.5-5.7,2.1-8.6c1.2-6.7,2.1-13.4,3.1-20.2
		c0.7-4.8,1.4-9.7,2.1-14.5c0.3-2.2,0.5-4.5,0.8-6.7c0.1-1,0.3-2,0.5-2.9c0.4-1.6,1.5-2.3,3.1-2.2c1.7,0.1,2.8,1.2,2.9,2.7
		c0.1,0.9,0,1.8,0,2.8c-0.4,4.6-0.6,9.2-0.3,13.7c0.4,7,1.8,13.8,4.5,20.3c0.5,1.3,1.1,2.6,2,3.7c1.4,1.9,1.5,1.5,2.3-0.2
		c0.9-1.8,1.4-3.8,2-5.7c2-7.3,4-14.6,6.3-21.9c0.6-1.9,1.2-3.7,1.8-5.6c0.8-2.7,2.2-5.1,3.9-7.3c1.7-2.2,3.9-4,6.7-4.7
		c4-1.1,7.7-0.2,10.9,2.3c0.7,0.5,1.3,1.1,1.9,1.7c0.3-0.3,0.2-0.7,0.3-1.1c0.8-7.8,2.2-15.6,4.5-23.1c2.1-6.7,4.7-13.1,8.3-19.2
		c1.6-2.6,3.4-5.1,5.7-7.3c1.3-1.3,2.8-2.4,4.5-3.2c4.5-2,9.2-0.5,11.8,3.6c1.3,2.1,1.8,4.3,2,6.7c0.3,3.8-0.5,7.5-1.8,11.1
		c-1.7,4.6-4.2,8.8-6.9,12.9c-3.8,5.6-8.5,10.5-13.6,15c-2.3,2-4.6,4-6.9,6c-0.8,0.6-1.1,1.3-1.2,2.3c-0.4,5.6-0.7,11.3-0.5,16.9
		c0.3,9.8,1.5,19.4,4.2,28.9c0.9,3.1,2,6,3.7,8.8c1,1.6,2.1,3.2,3.5,4.5c0.7,0.7,1.5,1.3,2.4,1.7c0.9,0.4,1.1,0.4,1.8-0.4
		c0.6-0.8,1-1.7,1.4-2.6c0.7-1.9,1.2-3.9,1.6-5.8c1.2-5.9,1.8-11.9,2.1-17.9c0.1-2.5,0.2-5,0.2-7.5c0-0.9-0.1-1.7-0.3-2.5
		c-1.4-5.9-1.5-11.7,0.1-17.6c0.6-2.4,1.6-4.6,3.1-6.5c1.8-2.4,4.1-4,7.2-4.3c6.9-0.7,13.3,5.1,10.7,13.1c-0.7,2.1-2.1,3.5-4,4.6
		c-2,1.2-4.3,1.8-6.6,2c-1.4,0.2-2.7,0.3-4.1,0.1c-0.5-0.1-0.7,0.1-0.7,0.6c0.2,4.2,0.7,8.3,2.4,12.1c1.2,2.6,2.8,4.8,5.2,6.3
		c3.2,2,4.8,1.9,7.6-0.6c1.1-1,2-2.2,2.8-3.4c1.7-2.4,3-5,4.2-7.7c1-2.4,2.1-4.8,3.1-7.3c0.2-0.5,0.5-1.1,0.5-1.7c0,0,0-0.1,0-0.1
		c0.2-0.9,1.2-1.5,2.4-1.6c1.2-0.1,2.2,0.5,2.5,1.3c0.2,0.4,0.1,0.9,0,1.3c-2.2,5.9-4.4,11.9-8,17.2c-1,1.5-2.1,2.9-3.4,4.1
		c-2.1,1.9-4.4,3.3-7.3,3.7c-2,0.3-4-0.1-5.8-0.8c-2.2-0.9-4.2-2.2-5.9-3.9c-0.2-0.2-0.4-0.4-0.6-0.6c0,0-0.1,0-0.2-0.1
		c-0.2,0.4-0.1,0.8-0.2,1.2c-0.4,6.3-1.1,12.5-2.5,18.6c-0.4,1.7-0.9,3.4-1.6,5.1c-0.4,0.9-0.9,1.8-1.5,2.6c-2,2.6-4.9,3.6-8.1,2.7
		c-1.4-0.4-2.6-1.1-3.8-2c-2.3-1.8-4.1-4-5.7-6.4c-2.4-3.7-4-7.7-5.2-11.9c-1.8-6.3-2.9-12.7-3.5-19.1c-0.2-2.2-0.3-4.3-0.4-6.6
		c-0.4,0.1-0.4,0.4-0.5,0.6c-0.9,1.9-1.8,3.8-2.9,5.7c-0.9,1.5-1.8,2.9-3,4.1c-1.1,1.1-2.3,2-3.8,2.5c-3.2,1.1-6.1,0.6-8.6-1.8
		c-1.9-1.7-3-4-3.9-6.3c-0.2-0.4-0.3-0.8-0.5-1.2c0,0-0.1,0-0.1,0c-0.2,0.3-0.3,0.7-0.4,1.1c-1.1,3.9-2,7.7-3.3,11.6
		c-0.4,1.2-0.8,2.3-1.3,3.5c-0.4,0.8-0.8,1.6-1.4,2.3c-2.2,2.7-5.9,3.2-8.7,1.1c-1.5-1.1-2.5-2.6-3.4-4.2c-1.6-2.8-2.9-5.8-3.9-8.9
		c-0.3-0.8-0.5-1.5-0.8-2.3c-0.1,0-0.1,0-0.2,0c-0.1,0.5-0.2,1.1-0.3,1.6c-0.8,5.8-1.6,11.6-2.9,17.3c-0.5,2.1-1,4.1-1.8,6.1
		c-0.4,0.9-0.8,1.7-1.4,2.4c-1.8,2.2-4.8,2.6-7,0.9c-1.1-0.9-2-2-2.7-3.2c-1.7-2.6-2.7-5.4-3.4-8.4c-1.2-4.6-1.6-9.3-1.5-14
		c0.1-9.1,1.6-18,3.9-26.9c0.2-0.9,0.4-1.9,0.6-2.8c0.1-0.8,0-0.9-0.8-1c-0.3,0-0.7-0.1-1-0.1c-2.3-0.1-4.7-0.1-7-0.4
		c-0.5-0.1-0.8,0.1-1,0.6c-3.5,6.6-8.3,11.9-14.1,16.5c-2,1.6-4,3.1-6.1,4.6c-1.1,0.8-0.9,0.6-0.3,1.5c1.8,2.7,3.1,5.6,3.4,8.9
		c1,9.9-6.7,18-16,17.6c-2.5-0.1-4.8-0.7-6.9-2.2c-2.4-1.7-3.9-4-4.2-7c-0.2-1.5,0.2-2.9,0.8-4.2c0.6-1.4,1.5-2.6,2.5-3.7
		c2.2-2.5,4.7-4.6,7.4-6.5c1.6-1.2,3.3-2.3,5-3.4c0.7-0.5,0.7-0.5,0.1-1c-3.8-3.6-8.2-5-13.4-4.1c-0.6,0.1-1.1,0.3-1.7,0.5
		c-1.1,0.4-2.1,0.3-3.1-0.2c-1.3-0.8-1.3-2,0-2.8c3.7-2.3,7.1-4.9,10.4-7.6c3.8-3,6.9-6.7,9.2-10.9c1.4-2.4,2.3-5,2.8-7.8
		c0.6-3.3,0.1-6.4-1.2-9.4c-1.8-4-5.6-6-9.9-5.2c-2,0.3-3.7,1.1-5.4,2.2c-2.8,1.9-5.1,4.3-7,7.2c-2.9,4.4-4.9,9.3-6.4,14.4
		c-1.7,6.2-2.4,12.6-2.4,19c0,8.4,0.8,16.7,2.7,25c0.4,1.7,0.8,3.4,1.3,5.1c0.3,1.1,0.3,2.2-0.8,2.9c-1.1,0.8-2.3,0.9-3.6,0.3
		c-0.7-0.4-1.3-0.9-1.8-1.5c-1-1.1-1.9-2.3-2.7-3.6c-3.4-5.2-6-10.8-8.1-16.7c-3.4-9.9-5.6-20-6.1-30.5c-0.4-8.6,0.1-17.1,1.8-25.5
		c0.6-3.3,1.5-6.5,2.5-9.6c0.1-0.3,0.3-0.6,0.2-1c-0.3-0.2-0.6,0-0.9,0.1c-0.9,0.2-1.7,0.6-2.5,1c-3.3,2-5.4,5-6.2,8.8
		c-0.1,0.6-0.1,1.2-0.1,1.7c0,0.9-0.4,1.4-1.3,1.6c-1.7,0.4-3.2-0.8-3.3-2.6c0-0.9,0.1-1.8,0.3-2.7c1.4-5.3,5.9-11.4,14.5-11.8
		c0.8,0,1.1-0.3,1.4-1c2-5,4.6-9.6,7.8-13.9c2.8-3.6,5.9-6.8,9.7-9.4c4-2.7,8.4-4.3,13.3-4.5c3.8-0.2,7.5,0.5,10.9,2.4
		c5.8,3.4,8.9,8.5,8.4,15.4c-0.3,4.5-2.5,8-5.9,10.8c-3,2.5-6.5,4-10.3,4.9c-4.4,1.1-8.9,1.2-13.4,0.9c-5-0.3-9.8-1.2-14.8-1.8
		c-0.2,0-0.3,0-0.5-0.1c-0.5-0.1-0.8,0.1-1,0.6c-0.7,2-1.3,4-1.8,6.1c-1.3,5.3-2.1,10.7-2.5,16.2c-0.4,6.1-0.4,12.2,0.1,18.3
		c0.7,8.4,2.6,16.5,5.2,24.4c1.1,3.2,2.3,6.4,3.7,9.4C122.4,178.7,122.5,179.1,122.9,179.3z M136.4,101.8c2.4,0,4.7-0.1,7-0.6
		c4-0.8,7.7-2.2,10.8-4.9c2.7-2.4,4.5-5.3,4.8-9c0.5-5.3-2.7-11.2-9.2-12.4c-2.7-0.5-5.3-0.3-7.9,0.4c-3.9,1-7.3,3.1-10.3,5.8
		c-5.6,5-9.3,11.3-12.2,18.2c-0.3,0.6-0.2,0.7,0.5,0.8c1.7,0.2,3.4,0.5,5.1,0.7C128.7,101.3,132.5,101.8,136.4,101.8z M263.4,135.6
		c0.2-0.1,0.3,0,0.3-0.1c0.8-0.7,1.7-1.5,2.5-2.2c6.3-5.6,11.9-11.9,16.3-19.1c2-3.3,3.8-6.6,4.9-10.4c0.8-2.8,1.3-5.6,0.9-8.5
		c-0.1-1.3-0.4-2.6-1.1-3.8c-0.8-1.4-1.8-1.8-3.4-1.5c-1,0.2-1.9,0.7-2.7,1.2c-1.5,1-2.7,2.2-3.8,3.6c-2,2.6-3.6,5.4-5,8.4
		c-3.6,7.9-6.3,16.1-7.9,24.6C264.2,130.4,263.7,133,263.4,135.6z M237.8,159.3c0,0.6,0.1,1.4,0.2,2.2c0.3,2.8,0.9,5.5,2.3,8
		c0.4,0.7,0.8,1.4,1.3,1.9c0.8,0.8,1.2,0.9,2.2,0.3c0.9-0.6,1.6-1.3,2.3-2.2c1-1.3,1.7-2.7,2.5-4.1c2.7-5.3,4.9-10.8,6.7-16.5
		c0.3-1,0.4-1.8-0.3-2.8c-1.3-1.7-2.6-3.4-4.3-4.6c-2-1.5-3.9-1.4-5.9,0c-0.8,0.6-1.5,1.4-2.2,2.2c-0.8,1.1-1.5,2.2-2.1,3.4
		C238.5,150.9,237.8,154.9,237.8,159.3z M159.3,176.4c0-3.2-1-6-2.3-8.6c-0.2-0.4-0.5-0.5-0.9-0.2c-0.6,0.4-1.2,0.8-1.8,1.2
		c-2.7,1.9-5.4,3.8-7.8,6.2c-1.1,1.1-2.2,2.4-3,3.8c-0.5,0.9-0.9,1.9-0.8,3c0.1,2.5,1.9,4.8,4.5,5.6c3.1,1,5.7,0.2,8.1-1.9
		C158.2,183,159.2,179.8,159.3,176.4z M181.5,128c0-1.2-0.1-2.5-0.4-3.7c-0.4-1.4-0.9-2.7-1.9-3.7c-0.9-1-1.6-1.1-2.8-0.3
		c-0.9,0.6-1.5,1.4-1.9,2.4c-1.2,2.7-1.6,5.4-1,8.3c0.6,2.9,2.3,5.1,5.1,6.3c0.7,0.3,0.7,0.3,1-0.4C180.7,134,181.4,131.1,181.5,128
		z M290.6,155.9c2.1,0,4-0.3,5.7-1.2c3-1.8,4.2-5.9,2.4-9c-1.1-2-3.3-2.5-5.2-1.2c-0.9,0.6-1.7,1.5-2.3,2.5
		c-1.5,2.5-2.3,5.2-2.6,8.1c-0.1,0.5,0.2,0.7,0.6,0.7C289.7,155.9,290.3,155.9,290.6,155.9z"/>
	<path class="st0" d="M268.7,251c0.8-0.4,1.5-0.8,2.1-1.1c0.4-0.2,0.4-0.5,0.2-0.8c-1-1.7-1.7-3.5-2.2-5.4c-0.9-4.2-0.5-8.2,1.3-12
		c2.4-5,6.5-7.7,12-8.3c8.4-0.8,15.8,3.5,19.5,11.1c1.8,3.6,2.6,7.5,3,11.4c0.2,2.4,0.2,4.7-0.1,7.1c-0.1,0.4,0,0.6,0.5,0.5
		c2.1-0.5,4.2-1,6.3-1.5c0.7-0.2,0.5-0.6,0.5-1c-0.2-2.3-0.2-4.6-0.2-7c0-1.9,0.2-3.7,0.7-5.5c0.2-0.7,0.4-1.3,0.7-1.9
		c1.1-2.2,3.8-1.9,5-0.8c0.4,0.4,0.7,1,0.7,1.6c0,0.8,0,1.5,0,2.3c-0.7,7.7,0.2,15.3,2.3,22.7c0,0.2,0.1,0.3,0.2,0.5
		c0,0.1,0.1,0.1,0.2,0.2c0.2-1.5,0.4-2.9,0.6-4.3c0.9-5.5,2.6-10.8,5-15.8c0.6-1.2,1.2-2.3,2-3.3c1.9-2.3,4.7-2.8,7.3-1.2
		c1.3,0.8,2.2,1.9,2.8,3.2c0.9,1.7,1.3,3.5,1.6,5.4c0.4,2.4,0.8,4.9,1.2,7.3c0,0.1,0,0.3,0.2,0.4c0.3-0.3,0.3-0.7,0.4-1
		c1.2-3.3,2.5-6.4,4.1-9.5c0.9-1.7,1.9-3.3,3.1-4.7c0.7-0.9,1.5-1.7,2.5-2.4c2.1-1.4,4.4-1.4,6.5,0c1.4,0.9,2.3,2.2,2.9,3.7
		c0.6,1.4,0.9,2.9,1,4.5c0.2,2.7,0,5.5-0.2,8.2c-0.3,3-0.6,6-0.9,9c-0.4,4.1-0.7,8.1-1.1,12.2c-0.2,2.7-0.3,5.5-0.3,8.2
		c0,1,0,1,1,1.2c3.2,0.7,6.2,1.7,9,3.4c1.7,1,3.3,2.2,4.6,3.7c2.3,2.6,3.6,5.7,3.4,9.2c-0.2,4.2-2.1,7.5-5.8,9.5
		c-2.9,1.6-5.8,1.5-8.5-0.3c-1.6-1.1-2.9-2.5-3.9-4.1c-1.9-2.8-3.1-5.9-4.1-9.2c-0.8-2.7-1.3-5.5-1.7-8.3c-0.1-0.9-0.1-0.9-1-0.9
		c-2.7,0-5.4,0.1-8.1,0.5c-9.5,1.2-18.6,3.9-27.6,7c-10.6,3.7-20.9,8-31.2,12.5c-6,2.6-12.1,5.2-18.2,7.6c-0.3,0.1-0.6,0.1-0.8,0.4
		c0.1,0.5,0.4,0.9,0.6,1.3c2.9,6.2,3.6,12.7,2,19.4c-1,4.2-3.3,7.8-6.3,10.9c-4.2,4.3-9.2,7.4-14.7,9.7c-9.1,3.8-18.5,5.6-28.3,5
		c-7.4-0.5-14.4-2.2-20.8-5.9c-3.3-1.9-6.2-4.3-8.6-7.2c-2.3-2.9-4-6.1-4.7-9.7c-1-5.2,0.3-9.7,4.6-13c2.8-2.2,6.1-3,9.6-1.9
		c2.7,0.9,4.5,2.7,5,5.6c0.6,3.4-1.6,6.8-4.9,7.8c-3.1,0.8-7.1-0.2-8.3-4.7c-0.1-0.3-0.2-0.7-0.3-1.1c-0.6,1-0.8,2-0.9,3.1
		c-0.2,2.2,0.3,4.4,1.1,6.4c1.6,3.8,4.2,6.8,7.5,9.2c4,3,8.6,4.8,13.4,5.9c13.1,2.9,25.6,1,37.4-5.3c3.7-2,6.9-4.5,9.5-7.9
		c2.4-3.1,3.7-6.7,4.2-10.5c0.6-4.8-0.1-9.5-1.8-14c-0.1-0.2-0.1-0.3-0.2-0.5c-0.3-0.6-0.3-0.7-1-0.4c-2.2,0.7-4.4,1.5-6.6,2.2
		c-6,1.9-12.1,3.5-18.3,4.5c-4.8,0.8-9.7,1.2-14.6,0.9c-3.8-0.3-7.5-1-10.9-2.7c-2.2-1.1-4.3-2.5-5.9-4.4c-1.5-1.8-2.5-3.9-2.7-6.3
		c-0.2-1.8,0.2-3.5,0.8-5.1c1.1-2.8,3-5.1,5.3-7.1c4.1-3.4,8.8-5.4,14-6.3c15.6-2.5,31.6,4,41.4,16.7c0.3,0.4,0.6,1.2,1.1,1.2
		c0.5,0.1,1-0.3,1.5-0.5c8.6-3.5,17.1-7.3,25.7-10.9c10.2-4.3,20.4-8.4,31-11.5c6-1.8,12.1-3.3,18.4-4.1c3.6-0.5,7.1-0.8,10.7-0.7
		c0.2,0,0.5,0,0.7,0c0.8,0,0.8,0,0.8-0.8c-0.1-2.7-0.1-5.5,0.1-8.2c0.2-3.8,0.5-7.5,0.9-11.2c0.6-5.1,1.1-10.3,1.7-15.4
		c0.2-1.7,0.2-3.5,0.1-5.2c0-0.4-0.1-0.9-0.3-1.3c-0.5,0.1-0.8,0.4-1.2,0.7c-1,0.9-1.8,1.9-2.6,3c-2,3-3.4,6.2-4.6,9.6
		c-1.5,4.2-2.7,8.4-3,12.8c-0.1,1.9-1.1,2.5-2.6,2.8c-1.6,0.3-3-0.4-3.7-1.8c-0.5-1-0.8-2.1-1.1-3.1c-1.2-4.3-1.9-8.7-2.5-13.1
		c-0.3-2.5-0.6-5.1-1-7.6c-0.1-0.4-0.1-0.8-0.3-1.2c-0.5,0.3-0.8,0.8-1.1,1.2c-1,1.5-1.7,3.1-2.3,4.8c-1.8,4.4-2.9,9-3.3,13.8
		c-0.2,2-0.2,4-0.5,5.9c-0.3,1.7-1,3-2.8,3.6c-1.8,0.6-3.4,0.2-4.8-1.2c-1.1-1.1-1.9-2.4-2.5-3.8c-1.5-3.2-2.6-6.6-3.3-10.1
		c-0.2-1.3-0.3-1.3-1.6-1c-2.2,0.5-4.4,1-6.6,1.5c-0.6,0.1-0.9,0.4-1.1,1c-0.8,2.8-1.8,5.4-3.3,8c-0.9,1.6-2,3.1-3.3,4.3
		c-3.5,3.4-8.4,3.9-12.5,1.3c-3-1.9-5-4.7-6.1-8.1c-0.9-2.7-1.2-5.5-1.4-8.4c0-0.6-0.2-0.9-0.7-1.3c-0.6-0.4-1.1-0.8-1.6-1.3
		c-0.3-0.3-0.5-0.3-0.9-0.1c-1.6,0.9-3.1,1.7-4.8,2.3c-0.6,0.2-0.6,0.7-0.7,1.2c-0.2,1.6-0.6,3.2-1.1,4.8c-0.8,2.7-1.9,5.2-3.5,7.5
		c-0.7,1.1-1.5,2-2.5,2.9c-3.1,2.7-6.6,3.4-10.4,1.9c-3.4-1.3-5.8-3.8-7.6-6.9c-0.6-1.1-1.1-2.3-1.5-3.5c-0.1-0.3-0.1-0.6-0.4-0.9
		c-0.1,0.3-0.2,0.6-0.3,0.9c-1.4,4.7-2.7,9.3-4.1,14c-0.3,1-0.7,2-1.1,3c-0.3,0.7-0.6,1.3-1,1.9c-1.8,2.4-5,2.9-7.3,1
		c-1-0.8-1.8-1.9-2.4-3c-1.5-2.6-2.4-5.3-3.1-8.2c-1.2-5.5-1.6-11-1.3-16.6c0.2-3.5,0.4-7,0.7-10.5c0.4-4.1,0.8-8.2,1.1-12.3
		c0.3-3,0.5-6.1,0.5-9.1c0-1.1,0-1.1-1.1-1.4c-1.9-0.4-3.9-0.8-5.8-1.3c-0.3,0.2-0.2,0.5-0.2,0.8c0.1,3.3,0.2,6.5,0,9.7
		c-0.2,3.4-0.5,6.8-0.8,10.1c-0.4,4.3-1,8.5-1.8,12.7c-1.7,9.5-4,18.8-7.3,27.9c-0.2,0.6-0.5,1.3-0.8,1.9c-0.7,1.8-3.1,1.8-4.1,1
		c-0.6-0.5-0.8-1-0.6-1.8c1.5-3.9,2.7-7.9,3.8-11.9c2.2-8.3,4-16.7,5.1-25.2c0.5-4.1,1-8.1,1.2-12.2c0.2-3,0.4-6,0.3-9
		c0-1.6-0.2-3.2-0.2-4.8c0-0.6-0.3-0.8-0.8-1c-1.3-0.4-2.5-1-3.8-1.6c-1.9-1-3.6-2.3-5-3.8c-1.3-1.3-2.2-2.9-2.4-4.8
		c-0.3-2.9,0.9-5.2,3.2-6.8c2.2-1.6,4.7-1.6,7.1-0.3c1.5,0.8,2.6,2,3.4,3.5c1.3,2.3,2,4.8,2.4,7.4c0.2,1.2,0.4,2.5,0.5,3.8
		c0.1,0.6,0.3,0.9,0.9,1c2.4,0.6,4.9,1,7.3,1.5c0.5,0.1,0.9,0.2,1.4,0.3c2.4,0.7,3.7,2.3,4.2,4.7c0.2,0.8,0.3,1.7,0.3,2.5
		c0.1,2.9-0.1,5.7-0.4,8.6c-0.3,3.1-0.6,6.3-0.9,9.4c-0.5,6.3-1,12.5-0.9,18.9c0,3.3,0.2,6.6,0.9,9.9c0.4,2,0.9,3.9,1.8,5.8
		c0.2,0.4,0.3,0.7,0.7,1c0.4-0.8,0.7-1.5,1-2.3c1.5-4.4,2.7-8.9,4.1-13.3c0.9-3,1.8-6.1,2.8-9.1c0.3-0.9,0.3-0.9-0.4-1.4
		c-4.2-3.3-6.2-7.6-6-13c0.4-7.1,6-13.5,13-14.8c5.1-1,9.8,0.3,14,3.3c5.1,3.7,8.1,8.8,9.2,15c0.3,1.9,0.5,3.9,0.5,5.8
		C268.7,250.3,268.7,250.6,268.7,251z M225,320.8c3.1,0,6.9-0.5,10.7-1.2c7.8-1.5,15.4-3.8,22.9-6.5c1-0.3,1-0.4,0.3-1.2
		c-7.3-10.4-20.5-17.5-34.6-15.6c-4.5,0.6-8.6,2.3-12.2,5.2c-1.9,1.5-3.4,3.3-4.4,5.6c-0.4,0.9-0.7,1.9-0.7,3
		c-0.1,2.5,0.8,4.5,2.5,6.2c1.5,1.6,3.4,2.6,5.5,3.3C217.9,320.5,221.1,320.8,225,320.8z M275.4,247.1c0.6-0.3,1.1-0.8,1.6-1.1
		c1.5-1.1,3.1-1.2,4.7-0.4c1.6,0.7,2,2.1,2,3.7c0,1.4-0.1,2.7-0.1,4.1c0,0.9,0,0.9,0.8,1.1c1.7,0.5,3.4,0.9,5.1,0.9
		c2.9,0.1,5.7-0.2,8.6-0.6c0.6-0.1,0.8-0.3,1-0.9c0.7-4,0.7-8,0-11.9c-0.5-2.9-1.4-5.7-2.9-8.3c-2.6-4.2-6.4-6.4-11.4-6.2
		c-4.3,0.1-7.6,2.2-9.6,6.1c-1.5,2.9-1.8,5.9-1.3,9.1C274.2,244.2,274.7,245.6,275.4,247.1z M240,249.3c0.2-0.3,0.2-0.5,0.2-0.7
		c0.2-1,0.3-2.1,0.8-3c1-1.8,3.1-2.4,4.8-1.2c0.7,0.4,1.1,1,1.1,1.9c0,0.6,0,1.3,0,1.9c0,1.5-0.2,3.1-0.2,4.6c0,1.1,0,1.1,1.1,1.4
		c1.1,0.3,2.3,0.5,3.4,0.6c3.9,0.3,7.8-0.1,11.5-1.2c0.4-0.1,0.6-0.3,0.6-0.7c0.3-4.2,0.1-8.4-1.3-12.4c-1.4-3.9-3.8-7.1-7.3-9.2
		c-3.4-2-6.9-2.2-10.4-0.3c-2.5,1.3-4.4,3.3-5.6,5.8c-1.8,3.9-1.7,7.7,0.4,11.5C239.4,248.6,239.6,249,240,249.3z M373,299.5
		c0-3.5-1.5-6.1-4-8.2c-2.4-1.9-5.1-2.9-8-3.6c-0.6-0.1-0.7-0.1-0.6,0.6c0.4,3.4,1,6.7,2.2,9.9c0.8,2.3,1.8,4.5,3.3,6.4
		c0.6,0.8,1.3,1.5,2.2,2c0.9,0.5,1.5,0.4,2.2-0.4C372.1,304.3,372.9,302,373,299.5z M247.4,257.9c0,0.2-0.1,0.3,0,0.4
		c0.4,2.8,1.1,5.5,2.6,8c0.8,1.4,2,2.6,3.4,3.5c1.6,0.9,2.4,0.9,3.8-0.3c1.2-1,2-2.2,2.8-3.5c1.3-2.3,2.1-4.8,2.7-7.4
		c0.1-0.2,0.2-0.5,0-0.8C257.6,258.8,252.6,259,247.4,257.9z M298,258.9c-2.5,0.2-4.8,0.5-7.1,0.4c-2.3-0.1-4.6-0.4-6.9-0.9
		c0.3,2.3,0.8,4.4,1.7,6.3c0.7,1.4,1.5,2.7,2.7,3.8c0.5,0.4,1,0.8,1.5,1c0.7,0.3,1.5,0.3,2.1-0.2c0.6-0.4,1.1-0.9,1.6-1.5
		C295.7,265.3,296.9,262.2,298,258.9z M210,215c0-0.1,0.1-0.2,0.1-0.3c-0.3-2.8-0.9-5.5-2.2-8.1c-0.3-0.6-0.6-1.2-1-1.6
		c-0.6-0.7-0.8-0.7-1.5-0.1c-0.2,0.2-0.4,0.4-0.6,0.6c-1.6,1.8-1.6,4.1,0,6c1.1,1.3,2.5,2.3,4,3.1C209.2,214.7,209.6,214.9,210,215z
		"/>
	<path class="st0" d="M65.4,251.6c-0.4,0.2-0.5,0.6-0.7,1c-2.3,3.8-3.7,7.9-4.2,12.3c-1,8.9,0.6,17.3,4.9,25.2
		c2.4,4.5,5.8,8.2,10.1,10.9c2.7,1.7,5.6,2.8,8.8,2.8c5.3,0,9.6-2.1,13-6.1c2.9-3.4,4.7-7.3,5.8-11.6c0.9-3.3,1.3-6.6,1-10
		c-0.2-2.7-0.8-5.3-1.9-7.8c-0.5-1.1-1-2.1-1.4-3.1c-0.4-0.1-0.5,0.2-0.7,0.4c-2.9,2.8-4.4,6.3-4.7,10.3c-0.2,2-1.9,3.1-3.8,2.4
		c-1-0.3-1.4-1.1-1.5-2.1c-0.1-1.6,0.1-3.1,0.5-4.7c0.7-2.4,1.9-4.6,3.5-6.5c1.7-2.1,3.8-3.8,6.1-5.3c2.4-1.6,4.9-2.9,7.5-4.1
		c3.8-1.8,7.6-3.6,11.3-5.5c3.3-1.8,6.5-3.8,9.5-6.1c1.4-1.1,2.7-2.3,3.8-3.7c0.2-0.2,0.3-0.3,0.4-0.7c-0.3-0.3-0.8-0.3-1.2-0.4
		c-2.8-0.7-5.4-1.8-7.8-3.5c-2.1-1.4-3.8-3.2-5.1-5.3c-0.5-0.8-0.9-1.6-1.1-2.5c-0.6-2.3,0.2-4.5,2.2-5.8c1-0.7,2.1-1,3.2-1.2
		c0.9-0.1,1.8,0,2.8,0.1c0.7,0.1,0.7,0.1,0.7-0.5c0.1-0.5,0.1-1.1,0.2-1.6c1-4.9,5.2-6.4,9-5.2c1.8,0.6,3.2,1.8,4.3,3.3
		c1.3,2,2.1,4.2,2.4,6.6c0.6,4.1,0,8-1.5,11.9c-0.1,0.3-0.2,0.6-0.3,0.9c0,0,0,0.1,0,0.2c1,0.1,2.1,0,3.2-0.1
		c2.2-0.2,4.4-0.4,6.5-0.6c0.8-0.1,1.6,0,2.4,0.5c0.6,0.4,1.1,0.9,1,1.7c-0.1,0.7-0.6,1.1-1.3,1.3c-0.7,0.3-1.5,0.3-2.2,0.4
		c-3.8,0.4-7.5,0.8-11.4,0.6c-0.4,0-0.6,0-0.9,0.3c-4.1,5.5-9.7,9.2-15.6,12.5c-3.4,1.9-6.9,3.5-10.4,5.2c-2.2,1-4.4,2.1-6.5,3.3
		c-0.7,0.4-0.7,0.4-0.3,1.1c0.6,1.2,1.2,2.3,1.7,3.5c1.4,2.9,2.2,5.9,2.4,9.1c0.6,8.6-1.7,16.4-6.8,23.3c-4,5.3-9.4,8.2-16,9.1
		c-5.1,0.6-9.9-0.5-14.3-3c-5.6-3.2-9.8-7.8-12.8-13.4c-3-5.5-4.7-11.4-5.2-17.7c-0.4-4.4,0-8.7,1-13c1.2-4.7,3.3-9,6.4-12.7
		c0.6-0.7,0.6-0.6,0.1-1.4c-3.5-6.4-4.9-13.3-4.5-20.6c0.4-6.6,2.2-12.8,5.9-18.3c4.4-6.5,10.3-10.6,18-12c7.4-1.3,14,0.9,19.4,6
		c3.7,3.4,5.9,7.8,6.5,12.8c0.2,1.5,0.1,3.1-0.2,4.6c-0.1,0.3-0.1,0.7-0.2,1c-0.1,0.4,0.1,0.5,0.4,0.5c0.3,0,0.5,0.1,0.8,0.1
		c0.8,0.1,1.4,0.5,2,1c0.8,0.9,0.6,2-0.6,2.5c-0.4,0.1-0.7,0.2-1.1,0.2c-3,0-6,0-9,0c-0.8,0-1.6-0.3-2.2-0.9
		c-0.8-0.8-0.7-1.9,0.4-2.5c0.6-0.3,1.2-0.4,1.9-0.4c0.4,0,0.8,0,1.2-0.1c1.4,0,1.3,0,1.6-1.4c1.6-7.6-3.7-18.2-14-19.8
		c-2.7-0.4-5.3-0.1-7.8,0.8c-5.6,2.1-9.8,5.8-12.7,11c-2.6,4.5-3.9,9.5-4.2,14.7c-0.4,5.7,0.5,11.1,2.6,16.4
		c0.5,1.3,0.4,1.2,1.5,0.4c2.5-1.7,5.2-3,8.2-3.5c3.7-0.6,7.2,0,10.3,2.4c3.9,3,4.6,8.3,1.7,12.3c-1.2,1.6-2.7,2.8-4.5,3.5
		c-3,1.2-6,1.2-9.1,0.3c-3-0.9-5.6-2.5-7.8-4.7C66.1,252.3,65.8,251.9,65.4,251.6z M137.5,226c0-0.4-0.1-1.2-0.1-1.9
		c-0.2-1.9-0.7-3.6-1.6-5.3c-0.3-0.5-0.6-1.1-1.1-1.5c-0.6-0.5-1.1-0.5-1.7,0c-0.4,0.3-0.6,0.7-0.8,1.2c-0.3,0.6-0.4,1.2-0.5,1.9
		c-0.2,1.2,0,2.4,0.1,3.6c0,1.1-0.4,1.7-1.5,2c-0.5,0.2-1,0.2-1.5,0.1c-0.7-0.1-1.3-0.4-1.9-0.8c-0.6-0.4-1.2-0.7-1.9-0.7
		c-1.3-0.1-2.3,0.8-2.3,2.2c0,0.7,0.3,1.4,0.6,2c0.8,1.5,1.9,2.7,3.2,3.7c2.4,1.8,5.1,2.8,8,3.4c0.5,0.1,0.7-0.2,0.8-0.5
		C136.6,232.6,137.4,229.6,137.5,226z M78.4,242.4c-0.6,0-1.2,0.1-1.7,0.2c-2.8,0.8-5.2,2.4-7.4,4.3c-0.3,0.3-0.3,0.5-0.1,0.9
		c1.3,1.9,2.8,3.6,4.8,4.9c0.8,0.5,1.7,1,2.7,1.2c1.1,0.3,2.3,0.5,3.4,0.2c2.8-0.7,4.8-3.7,4.4-6.7
		C84.1,244.6,81.4,242.4,78.4,242.4z"/>
	<path class="st0" d="M194.6,233.1c-0.5,0.4-0.6,0.7-0.7,1c-1.9,3.5-3.8,7-5.8,10.4c-2.3,3.8-4.9,7.4-8.1,10.6
		c-1.3,1.3-2.8,2.5-4.4,3.5c-1.2,0.7-2.5,1.2-3.8,1.3c-3.2,0.4-5.7-0.8-7.6-3.4c-1.4-1.9-2.3-4-2.8-6.2c-1.4-6.3-0.4-12.2,2.5-17.9
		c1.2-2.2,2.6-4.3,4.4-6c4.7-4.7,10.2-6.1,16.6-4.5c2.5,0.6,4.8,1.6,6.9,3c0.3,0.2,0.5,0.3,0.8,0.5c0.3-0.2,0.3-0.4,0.4-0.7
		c0.4-0.8,0.7-1.6,1.1-2.4c0.4-1,1.2-1.5,2.2-1.7c2.1-0.4,4.3,1,4.8,3.1c0.2,0.9,0.3,1.9,0.3,2.8c0.2,6.2,0.2,12.5-0.2,18.7
		c-0.5,7.1-1.2,14.2-2.6,21.3c-3.2,15.3-9.7,28.9-20.3,40.4c-5.7,6.1-12.2,11.1-19.9,14.5c-4.5,2-9.1,3.1-14,3
		c-8.7-0.2-15.2-4.2-19.5-11.7c-1.8-3-2.6-6.4-2.9-9.9c-1.1-10.3,6.2-23,17.4-27c5.1-1.8,10.3-1.9,15.4,0.1c5.3,2.1,8.7,6,10.1,11.5
		c0.7,3,0.4,5.9-0.7,8.8c-1.5,3.6-4.3,5.6-8.1,6.3c-2.5,0.4-4.8-0.2-7.2-0.9c-0.5-0.1-0.9-0.4-1.2-0.7c-0.9-0.9-0.7-2.1,0.3-2.7
		c1-0.6,2-0.6,3-0.1c0.6,0.3,1.1,0.5,1.7,0.6c3.1,0.7,5.1-1.1,5.9-3.1c0.8-1.8,1-3.6,1-5.5c-0.1-3.9-2.1-6.9-5-9.3
		c-1.5-1.3-3.4-1.8-5.4-2.1c-3.6-0.6-6.9,0.2-10,1.9c-4.9,2.7-8.1,6.8-10.3,11.8c-1.1,2.6-1.8,5.3-1.8,8.2c0,6.7,2.4,12.4,7.7,16.6
		c3.7,2.9,7.9,3.7,12.5,3.1c3.6-0.5,6.9-1.8,10.1-3.5c7-3.8,12.9-8.9,17.8-15.1c7.8-9.7,12.9-20.8,15.8-32.8c1.2-5,2-10.1,2.5-15.3
		c0.7-6.3,1.1-12.6,1.2-18.9C194.6,234,194.6,233.7,194.6,233.1z M166.5,246.5c0.1,1.3,0.1,2.6,0.4,3.8c0.4,1.8,1,3.6,2.1,5.1
		c0.8,1.1,1.3,1.2,2.5,0.7c1.2-0.5,2.2-1.2,3.1-2c2-1.7,3.7-3.6,5.3-5.7c4.4-5.8,7.7-12.3,10.8-18.8c0.2-0.5,0.1-0.7-0.3-1
		c-1.9-1.3-4-2.3-6.2-2.8c-1.4-0.3-2.9-0.3-4.3-0.1c-2.8,0.5-5.1,2-6.9,4.1C168.8,234.6,166.7,240.1,166.5,246.5z"/>
	<path class="st2" d="M210.2,117.3c0.3-0.8,0.5-1.6,0.7-2.5c0.5-1.9,1.1-3.8,2.1-5.6c0.5-0.9,1.2-1.5,2.2-1.6c1.9-0.2,3.4,1.1,3.4,3
		c0,2-0.4,3.9-0.8,5.9c-0.8,4.2-1.9,8.4-3,12.5c-0.2,0.6-0.4,1.2-0.6,1.7c-1,2.4-3.7,2.9-5.5,1.1c-0.2-0.2-0.5-0.5-0.6-0.8
		c-1.9-2.9-3.5-6-4.6-9.3c-0.4-1.1-0.7-2.3-0.6-3.5c0.1-1.8,1.2-2.8,3-2.9c1.3-0.1,2.5,0.4,3.5,1.2
		C209.5,116.9,209.8,117.2,210.2,117.3z"/>
	<path class="st2" d="M106.9,315.8c0-0.9-0.3-1.7-0.5-2.5c-0.4-2-0.7-3.9-0.6-5.9c0-1,0.4-1.8,1.3-2.4c1.7-1,3.6-0.5,4.4,1.2
		c0.9,1.8,1.4,3.7,1.9,5.6c1.1,4.2,2,8.4,2.8,12.6c0.1,0.6,0.2,1.2,0.2,1.8c0.2,2.5-2,4.2-4.5,3.4c-0.3-0.1-0.6-0.3-0.9-0.4
		c-3-1.8-5.8-3.9-8.3-6.3c-0.9-0.8-1.6-1.8-2.1-2.9c-0.6-1.6-0.2-3.1,1.4-3.9c1.2-0.7,2.4-0.7,3.7-0.5
		C106.1,315.7,106.5,315.9,106.9,315.8z"/>
	<path class="st2" d="M88.9,161.4c0.3-0.8,0.3-1.7,0.4-2.5c0.3-2,0.7-3.9,1.5-5.7c0.4-0.9,1.1-1.6,2.1-1.8c1.9-0.4,3.5,0.7,3.7,2.7
		c0.2,2,0,4-0.2,5.9c-0.4,4.3-1,8.6-1.8,12.8c-0.1,0.6-0.2,1.2-0.4,1.8c-0.7,2.4-3.4,3.3-5.4,1.7c-0.3-0.2-0.5-0.5-0.7-0.7
		c-2.2-2.7-4.1-5.6-5.6-8.8c-0.5-1.1-0.9-2.2-0.9-3.4c0-1.8,0.9-2.9,2.6-3.2c1.3-0.2,2.5,0.1,3.6,0.8
		C88.2,161,88.4,161.3,88.9,161.4z"/>
	<path class="st2" d="M271.2,285.4c-0.2-0.8-0.2-1.7-0.4-2.5c-0.3-2-0.6-3.9-1.3-5.8c-0.4-1-1-1.6-2-1.9c-1.9-0.5-3.5,0.6-3.8,2.6
		c-0.2,2-0.1,4,0,5.9c0.3,4.3,0.8,8.6,1.4,12.8c0.1,0.6,0.2,1.2,0.4,1.8c0.6,2.5,3.3,3.4,5.3,1.8c0.3-0.2,0.5-0.4,0.7-0.7
		c2.3-2.7,4.2-5.5,5.8-8.7c0.5-1.1,1-2.2,1-3.4c0.1-1.8-0.8-3-2.6-3.3c-1.3-0.3-2.5,0.1-3.6,0.7C271.9,285,271.6,285.3,271.2,285.4z
		"/>
	<path class="st2" d="M334.2,192.4c-0.2-0.8-0.2-1.7-0.4-2.5c-0.3-2-0.6-3.9-1.3-5.8c-0.4-1-1-1.6-2-1.9c-1.9-0.5-3.5,0.6-3.8,2.6
		c-0.2,2-0.1,4,0,5.9c0.3,4.3,0.8,8.6,1.4,12.8c0.1,0.6,0.2,1.2,0.4,1.8c0.6,2.5,3.3,3.4,5.3,1.8c0.3-0.2,0.5-0.4,0.7-0.7
		c2.3-2.7,4.2-5.5,5.8-8.7c0.5-1.1,1-2.2,1-3.4c0.1-1.8-0.8-3-2.6-3.3c-1.3-0.3-2.5,0.1-3.6,0.7C334.9,192,334.6,192.3,334.2,192.4z
		"/>
</g>
</svg>
