<svg xmlns="http://www.w3.org/2000/svg" xmlns:xlink="http://www.w3.org/1999/xlink" width="500" zoomAndPan="magnify" viewBox="0 0 375 374.999991" height="500" preserveAspectRatio="xMidYMid meet" version="1.0"><defs><g/></defs><g fill="#000000" fill-opacity="1"><g transform="translate(6.084658, 184.304299)"><g><path d="M 84 -107.296875 L 124.921875 -107.296875 L 124.921875 -104.390625 L 116.5 -104.390625 L 116.5 -2.90625 L 124.921875 -2.90625 L 124.921875 0 L 78.171875 0 L 78.171875 -2.90625 L 86.609375 -2.90625 L 86.609375 -98.71875 L 85.984375 -98.71875 L 63 0 L 43.84375 0 L 16.859375 -99.171875 L 16.25 -99.171875 L 16.25 -2.90625 L 24.671875 -2.90625 L 24.671875 0 L 3.828125 0 L 3.828125 -2.90625 L 12.265625 -2.90625 L 12.265625 -104.390625 L 3.828125 -104.390625 L 3.828125 -107.296875 L 45.21875 -107.296875 L 65.609375 -28.359375 Z M 84 -107.296875 "/></g></g></g><g fill="#000000" fill-opacity="1"><g transform="translate(134.84039, 184.304299)"><g><path d="M 38.3125 -36.015625 L 42.765625 -36.015625 L 42.765625 -47.828125 C 42.765625 -57.535156 42.226562 -64.046875 41.15625 -67.359375 C 40.082031 -70.679688 38.015625 -72.34375 34.953125 -72.34375 C 33.109375 -72.34375 31.445312 -71.859375 29.96875 -70.890625 C 28.488281 -69.921875 27.75 -68.59375 27.75 -66.90625 C 27.75 -65.21875 28.050781 -63.503906 28.65625 -61.765625 L 32.5 -61.765625 C 33.3125 -59.617188 33.71875 -57.039062 33.71875 -54.03125 C 33.71875 -51.019531 32.441406 -48.414062 29.890625 -46.21875 C 27.335938 -44.019531 24.117188 -42.921875 20.234375 -42.921875 C 11.441406 -42.921875 7.046875 -47.160156 7.046875 -55.640625 C 7.046875 -68.210938 17.726562 -74.5 39.09375 -74.5 C 51.25 -74.5 59.648438 -72.425781 64.296875 -68.28125 C 68.953125 -64.144531 71.28125 -56.5625 71.28125 -45.53125 L 71.28125 -14.40625 C 71.28125 -9.09375 72.757812 -6.4375 75.71875 -6.4375 C 79.195312 -6.4375 81.242188 -11.695312 81.859375 -22.21875 L 84.15625 -22.078125 C 83.738281 -13.078125 82.046875 -6.890625 79.078125 -3.515625 C 76.117188 -0.148438 71.269531 1.53125 64.53125 1.53125 C 52.269531 1.53125 45.21875 -2.25 43.375 -9.8125 C 42.050781 -5.925781 40.0625 -3.0625 37.40625 -1.21875 C 34.75 0.613281 30.863281 1.53125 25.75 1.53125 C 10.625 1.53125 3.0625 -4.648438 3.0625 -17.015625 C 3.0625 -24.265625 5.945312 -29.242188 11.71875 -31.953125 C 17.5 -34.660156 26.363281 -36.015625 38.3125 -36.015625 Z M 32.1875 -17.171875 C 32.1875 -11.859375 32.46875 -8.429688 33.03125 -6.890625 C 33.59375 -5.359375 34.664062 -4.59375 36.25 -4.59375 C 37.832031 -4.59375 39.3125 -5.894531 40.6875 -8.5 C 42.070312 -11.113281 42.765625 -14.71875 42.765625 -19.3125 L 42.765625 -33.5625 L 41.6875 -33.5625 C 35.351562 -33.5625 32.1875 -28.914062 32.1875 -19.625 Z M 32.1875 -17.171875 "/></g></g></g><g fill="#000000" fill-opacity="1"><g transform="translate(218.991472, 184.304299)"><g><path d="M 44.453125 -71.734375 C 39.953125 -71.734375 36.726562 -69.28125 34.78125 -64.375 C 32.84375 -59.46875 31.875 -51.34375 31.875 -40 L 31.875 -32.03125 C 31.875 -21.914062 33 -14.660156 35.25 -10.265625 C 37.5 -5.867188 41.640625 -3.671875 47.671875 -3.671875 C 53.703125 -3.671875 58.503906 -5.710938 62.078125 -9.796875 C 65.648438 -13.890625 67.945312 -18.546875 68.96875 -23.765625 L 71.734375 -23.453125 C 69.796875 -14.660156 66.21875 -8.320312 61 -4.4375 C 55.6875 -0.457031 48.382812 1.53125 39.09375 1.53125 C 27.238281 1.53125 18.140625 -1.660156 11.796875 -8.046875 C 5.460938 -14.429688 2.296875 -23.78125 2.296875 -36.09375 C 2.296875 -48.40625 5.894531 -57.882812 13.09375 -64.53125 C 20.300781 -71.175781 30.34375 -74.5 43.21875 -74.5 C 52.320312 -74.5 59.273438 -72.734375 64.078125 -69.203125 C 68.878906 -65.679688 71.28125 -61.265625 71.28125 -55.953125 C 71.28125 -50.640625 70.128906 -46.753906 67.828125 -44.296875 C 65.523438 -41.847656 62.351562 -40.625 58.3125 -40.625 C 54.28125 -40.625 51.035156 -41.695312 48.578125 -43.84375 C 46.128906 -45.988281 44.90625 -49.15625 44.90625 -53.34375 C 44.90625 -55.175781 45.160156 -57.015625 45.671875 -58.859375 L 50.734375 -58.859375 C 51.453125 -60.898438 51.8125 -62.738281 51.8125 -64.375 C 51.8125 -69.28125 49.359375 -71.734375 44.453125 -71.734375 Z M 44.453125 -71.734375 "/></g></g></g><g fill="#000000" fill-opacity="1"><g transform="translate(293.026015, 184.304299)"><g><path d="M 52.734375 -68.671875 C 48.953125 -68.671875 45.628906 -66.21875 42.765625 -61.3125 C 39.898438 -56.40625 38.46875 -50.582031 38.46875 -43.84375 L 38.46875 -2.765625 L 49.359375 -2.765625 L 49.359375 0 L 1.53125 0 L 1.53125 -2.765625 L 9.96875 -2.765625 L 9.96875 -70.203125 L 1.53125 -70.203125 L 1.53125 -72.96875 L 38.46875 -72.96875 L 38.46875 -58.25 C 39.800781 -63.457031 42.359375 -67.46875 46.140625 -70.28125 C 49.921875 -73.09375 54.210938 -74.5 59.015625 -74.5 C 63.816406 -74.5 67.722656 -73.144531 70.734375 -70.4375 C 73.753906 -67.726562 75.265625 -63.894531 75.265625 -58.9375 C 75.265625 -53.976562 74.140625 -50.171875 71.890625 -47.515625 C 69.640625 -44.859375 66.1875 -43.53125 61.53125 -43.53125 C 56.882812 -43.53125 53.460938 -45.0625 51.265625 -48.125 C 49.078125 -51.195312 48.796875 -55.441406 50.421875 -60.859375 L 55.953125 -60.859375 C 58.503906 -66.066406 57.429688 -68.671875 52.734375 -68.671875 Z M 52.734375 -68.671875 "/></g></g></g><g fill="#000000" fill-opacity="1"><g transform="translate(37.809989, 306.898792)"><g><path d="M 38.3125 -36.015625 L 42.765625 -36.015625 L 42.765625 -47.828125 C 42.765625 -57.535156 42.226562 -64.046875 41.15625 -67.359375 C 40.082031 -70.679688 38.015625 -72.34375 34.953125 -72.34375 C 33.109375 -72.34375 31.445312 -71.859375 29.96875 -70.890625 C 28.488281 -69.921875 27.75 -68.59375 27.75 -66.90625 C 27.75 -65.21875 28.050781 -63.503906 28.65625 -61.765625 L 32.5 -61.765625 C 33.3125 -59.617188 33.71875 -57.039062 33.71875 -54.03125 C 33.71875 -51.019531 32.441406 -48.414062 29.890625 -46.21875 C 27.335938 -44.019531 24.117188 -42.921875 20.234375 -42.921875 C 11.441406 -42.921875 7.046875 -47.160156 7.046875 -55.640625 C 7.046875 -68.210938 17.726562 -74.5 39.09375 -74.5 C 51.25 -74.5 59.648438 -72.425781 64.296875 -68.28125 C 68.953125 -64.144531 71.28125 -56.5625 71.28125 -45.53125 L 71.28125 -14.40625 C 71.28125 -9.09375 72.757812 -6.4375 75.71875 -6.4375 C 79.195312 -6.4375 81.242188 -11.695312 81.859375 -22.21875 L 84.15625 -22.078125 C 83.738281 -13.078125 82.046875 -6.890625 79.078125 -3.515625 C 76.117188 -0.148438 71.269531 1.53125 64.53125 1.53125 C 52.269531 1.53125 45.21875 -2.25 43.375 -9.8125 C 42.050781 -5.925781 40.0625 -3.0625 37.40625 -1.21875 C 34.75 0.613281 30.863281 1.53125 25.75 1.53125 C 10.625 1.53125 3.0625 -4.648438 3.0625 -17.015625 C 3.0625 -24.265625 5.945312 -29.242188 11.71875 -31.953125 C 17.5 -34.660156 26.363281 -36.015625 38.3125 -36.015625 Z M 32.1875 -17.171875 C 32.1875 -11.859375 32.46875 -8.429688 33.03125 -6.890625 C 33.59375 -5.359375 34.664062 -4.59375 36.25 -4.59375 C 37.832031 -4.59375 39.3125 -5.894531 40.6875 -8.5 C 42.070312 -11.113281 42.765625 -14.71875 42.765625 -19.3125 L 42.765625 -33.5625 L 41.6875 -33.5625 C 35.351562 -33.5625 32.1875 -28.914062 32.1875 -19.625 Z M 32.1875 -17.171875 "/></g></g></g><g fill="#000000" fill-opacity="1"><g transform="translate(121.961058, 306.898792)"><g><path d="M 1.53125 -72.96875 L 38.46875 -72.96875 L 38.46875 -58.859375 C 41.84375 -69.285156 49.273438 -74.5 60.765625 -74.5 C 72.265625 -74.5 79.242188 -68.976562 81.703125 -57.9375 C 85.273438 -68.976562 92.785156 -74.5 104.234375 -74.5 C 119.253906 -74.5 126.765625 -65.960938 126.765625 -48.890625 L 126.765625 -2.765625 L 135.34375 -2.765625 L 135.34375 0 L 92.890625 0 L 92.890625 -2.765625 L 98.25 -2.765625 L 98.25 -52.578125 C 98.25 -60.335938 97.585938 -64.882812 96.265625 -66.21875 C 95.648438 -66.832031 94.832031 -67.140625 93.8125 -67.140625 C 90.84375 -67.140625 88.234375 -65.144531 85.984375 -61.15625 C 83.742188 -57.175781 82.625 -52.117188 82.625 -45.984375 L 82.625 -2.765625 L 88.140625 -2.765625 L 88.140625 0 L 48.75 0 L 48.75 -2.765625 L 54.109375 -2.765625 L 54.109375 -52.578125 C 54.109375 -60.335938 53.441406 -64.882812 52.109375 -66.21875 C 51.503906 -66.832031 50.6875 -67.140625 49.65625 -67.140625 C 46.800781 -67.140625 44.222656 -64.96875 41.921875 -60.625 C 39.617188 -56.28125 38.46875 -51.09375 38.46875 -45.0625 L 38.46875 -2.765625 L 43.984375 -2.765625 L 43.984375 0 L 1.53125 0 L 1.53125 -2.765625 L 9.96875 -2.765625 L 9.96875 -70.203125 L 1.53125 -70.203125 Z M 1.53125 -72.96875 "/></g></g></g><g fill="#000000" fill-opacity="1"><g transform="translate(258.074254, 306.898792)"><g><path d="M 41.84375 1.53125 C 28.664062 1.53125 18.78125 -1.863281 12.1875 -8.65625 C 5.59375 -15.457031 2.296875 -24.910156 2.296875 -37.015625 C 2.296875 -49.128906 6 -58.40625 13.40625 -64.84375 C 20.820312 -71.28125 30.25 -74.5 41.6875 -74.5 C 64.882812 -74.5 76.023438 -62.847656 75.109375 -39.546875 L 31.875 -39.546875 L 31.875 -33.5625 C 31.875 -23.550781 33.148438 -15.988281 35.703125 -10.875 C 38.265625 -5.769531 42.710938 -3.21875 49.046875 -3.21875 C 60.898438 -3.21875 68.664062 -9.550781 72.34375 -22.21875 L 75.109375 -21.765625 C 73.171875 -14.410156 69.671875 -8.6875 64.609375 -4.59375 C 59.546875 -0.507812 51.957031 1.53125 41.84375 1.53125 Z M 47.828125 -42.609375 L 47.828125 -50.125 C 47.828125 -58.394531 47.335938 -64.035156 46.359375 -67.046875 C 45.390625 -70.066406 43.445312 -71.578125 40.53125 -71.578125 C 37.625 -71.578125 35.476562 -69.96875 34.09375 -66.75 C 32.71875 -63.53125 32.03125 -57.988281 32.03125 -50.125 L 32.03125 -42.609375 Z M 30.34375 -83.84375 L 40 -113.125 L 47.203125 -114.65625 C 50.378906 -115.375 52.804688 -114.988281 54.484375 -113.5 C 56.171875 -112.019531 57.015625 -110.023438 57.015625 -107.515625 C 57.015625 -105.015625 55.535156 -102.4375 52.578125 -99.78125 L 32.03125 -82.765625 Z M 30.34375 -83.84375 "/></g></g></g></svg>